# xmcd CD database file
#
# Track frame offsets:
#	150
#	39302
#	42897
#	69474
#	71093
#	99919
#	101423
#	127578
#	154667
#	156621
#	192860
#	217493
#	218840
#	242217
#	266876
#	276597
#
# Disc length: 4255 seconds
#
# Revision: 0
# Processed by: cddbd v1.5.1PL0 Copyright (c) Steve Scherf et al.
# Submitted via: CDex 1.51
#
DISCID=f3109d10
DTITLE=Jean-Michel Jarre - Twelve Dreams of the Sun Disc 2
DYEAR=2000
DGENRE=New Age
TTITLE0=C'est La Vie
TTITLE1=A Millennium of Tolerance
TTITLE2=Salma Y Salma
TTITLE3=Dream 9 - The Bell
TTITLE4=Equinoxe 4
TTITLE5=Dream 10 - The Snow
TTITLE6=Oxygene 4
TTITLE7=Tout Est Bleu
TTITLE8=Dream 11 - The Blood
TTITLE9=(R)Evolutions
TTITLE10=Oxygene 12
TTITLE11=Dream 12 - The Gate
TTITLE12=Give Me A Sign
TTITLE13=Oxygene 8
TTITLE14=Band In The Rain
TTITLE15=Rendez-Vous 2
EXTD=YEAR: 2000
EXTT0=
EXTT1=
EXTT2=
EXTT3=
EXTT4=
EXTT5=
EXTT6=
EXTT7=
EXTT8=
EXTT9=
EXTT10=
EXTT11=
EXTT12=
EXTT13=
EXTT14=
EXTT15=
PLAYORDER=
